<svg version="1.1" xmlns="http://www.w3.org/2000/svg" xmlns:xlink="http://www.w3.org/1999/xlink" viewBox="0 0 252 252">
	<g fill="none" fill-rule="nonzero" stroke="none" stroke-width="1" stroke-linecap="butt" stroke-linejoin="miter" stroke-miterlimit="10" stroke-dasharray="" stroke-dashoffset="0" font-family="none" font-weight="none" font-size="none" text-anchor="none" style="mix-blend-mode: normal">
		<path d="M0,252v-252h252v252z" fill="none"></path>
		<path d="M0,252v-252h252v252z" fill="#f6f6f6"></path>
		<g id="Layer_1">
			<g>
				<g fill="#ffffff">
					<circle cx="44.875" cy="80" transform="scale(1.575,1.575)" r="10"></circle>
				</g>
				<g fill="#ffffff">
					<circle cx="44.875" cy="115" transform="scale(1.575,1.575)" r="10"></circle>
				</g>
				<g fill="#ffffff">
					<circle cx="44.875" cy="45" transform="scale(1.575,1.575)" r="10"></circle>
				</g>
				<g>
					<g fill="#007fff">
						<path d="M70.67812,146.475c-11.34,0 -20.475,-9.135 -20.475,-20.475c0,-11.34 9.135,-20.475 20.475,-20.475c11.34,0 20.475,9.135 20.475,20.475c0,11.34 -9.135,20.475 -20.475,20.475zM70.67812,114.975c-6.1425,0 -11.025,4.8825 -11.025,11.025c0,6.1425 4.8825,11.025 11.025,11.025c6.1425,0 11.025,-4.8825 11.025,-11.025c0,-6.1425 -4.8825,-11.025 -11.025,-11.025z"></path>
					</g>
					<g fill="#444b54">
						<path d="M70.67812,201.6c-11.34,0 -20.475,-9.135 -20.475,-20.475c0,-11.34 9.135,-20.475 20.475,-20.475c11.34,0 20.475,9.135 20.475,20.475c0,11.34 -9.135,20.475 -20.475,20.475zM70.67812,170.1c-6.1425,0 -11.025,4.8825 -11.025,11.025c0,6.1425 4.8825,11.025 11.025,11.025c6.1425,0 11.025,-4.8825 11.025,-11.025c0,-6.1425 -4.8825,-11.025 -11.025,-11.025z"></path>
					</g>
					<g fill="#007fff">
						<path d="M70.67812,91.35c-11.34,0 -20.475,-9.135 -20.475,-20.475c0,-11.34 9.135,-20.475 20.475,-20.475c11.34,0 20.475,9.135 20.475,20.475c0,11.34 -9.135,20.475 -20.475,20.475zM70.67812,59.85c-6.1425,0 -11.025,4.8825 -11.025,11.025c0,6.1425 4.8825,11.025 11.025,11.025c6.1425,0 11.025,-4.8825 11.025,-11.025c0,-6.1425 -4.8825,-11.025 -11.025,-11.025z"></path>
					</g>
					<g fill="#007fff">
						<path d="M195.10313,75.6h-85.05c-2.6775,0 -4.725,-2.0475 -4.725,-4.725c0,-2.6775 2.0475,-4.725 4.725,-4.725h85.05c2.6775,0 4.725,2.0475 4.725,4.725c0,2.6775 -2.0475,4.725 -4.725,4.725z"></path>
					</g>
					<g fill="#007fff">
						<path d="M195.10313,130.725h-85.05c-2.6775,0 -4.725,-2.0475 -4.725,-4.725c0,-2.6775 2.0475,-4.725 4.725,-4.725h85.05c2.6775,0 4.725,2.0475 4.725,4.725c0,2.6775 -2.0475,4.725 -4.725,4.725z"></path>
					</g>
					<g fill="#444b54">
						<path d="M195.10313,185.85h-85.05c-2.6775,0 -4.725,-2.0475 -4.725,-4.725c0,-2.6775 2.0475,-4.725 4.725,-4.725h85.05c2.6775,0 4.725,2.0475 4.725,4.725c0,2.6775 -2.0475,4.725 -4.725,4.725z"></path>
					</g>
				</g>
			</g>
		</g>
	</g>
</svg>